<svg width="47" height="42" viewBox="0 0 47 42" fill="none" xmlns="http://www.w3.org/2000/svg">
<path d="M18.5064 27.475L36.2782 11.5937C36.5742 11.3312 36.9256 11.2 37.3325 11.2C37.7394 11.2 38.0897 11.332 38.3835 11.5961C38.6772 11.8601 38.8241 12.1736 38.8241 12.5367C38.8241 12.8997 38.6772 13.2125 38.3835 13.475L19.5345 30.3188C19.2407 30.5813 18.898 30.7125 18.5064 30.7125C18.1147 30.7125 17.772 30.5813 17.4782 30.3188L8.56782 22.3563C8.27407 22.0918 8.13536 21.7778 8.15168 21.4142C8.168 21.0506 8.3239 20.7375 8.61938 20.475C8.91482 20.2125 9.26569 20.0813 9.67198 20.0813C10.0782 20.0813 10.4282 20.2125 10.722 20.475L18.5064 27.475Z" fill="black"/>
</svg>
