<svg width="30" height="29" viewBox="0 0 30 29" fill="none" xmlns="http://www.w3.org/2000/svg">
<path d="M11.8125 18.9708L23.1563 8.0052C23.3451 7.82395 23.5694 7.73333 23.8292 7.73333C24.0889 7.73333 24.3125 7.82449 24.5 8.00681C24.6875 8.1891 24.7813 8.4056 24.7813 8.65628C24.7813 8.90695 24.6875 9.12291 24.5 9.30416L12.4687 20.9344C12.2812 21.1156 12.0625 21.2062 11.8125 21.2062C11.5625 21.2062 11.3437 21.1156 11.1562 20.9344L5.46875 15.4365C5.28125 15.2539 5.19271 15.037 5.20312 14.786C5.21354 14.5349 5.31305 14.3187 5.50165 14.1375C5.69024 13.9562 5.9142 13.8656 6.17353 13.8656C6.43284 13.8656 6.65625 13.9562 6.84375 14.1375L11.8125 18.9708Z" fill="black"/>
</svg>
