<svg width="48" height="44" viewBox="0 0 44 40" fill="none" xmlns="http://www.w3.org/2000/svg">
<path d="M18.2875 33.3334C17.1875 33.3334 16.2556 32.9781 15.4917 32.2675C14.7278 31.557 14.3458 30.7028 14.3458 29.705C14.3458 28.7072 14.7278 27.8611 15.4917 27.1667C16.2556 26.4722 17.1875 26.125 18.2875 26.125H36.3917C37.4917 26.125 38.4236 26.4722 39.1875 27.1667C39.9514 27.8611 40.3333 28.7072 40.3333 29.705C40.3333 30.7028 39.9514 31.557 39.1875 32.2675C38.4236 32.9781 37.4917 33.3334 36.3917 33.3334H18.2875ZM18.3333 23.625C17.2368 23.625 16.298 23.2697 15.5172 22.5592C14.7363 21.8487 14.3458 20.9945 14.3458 19.9967C14.3458 18.9989 14.7363 18.1459 15.5172 17.4375C16.298 16.7292 17.2368 16.375 18.3333 16.375H36.3458C37.4424 16.375 38.3811 16.7303 39.162 17.4409C39.9429 18.1514 40.3333 19.0055 40.3333 20.0034C40.3333 21.0011 39.9429 21.8542 39.162 22.5625C38.3811 23.2709 37.4424 23.625 36.3458 23.625H18.3333ZM18.2875 13.875C17.1875 13.875 16.2556 13.5197 15.4917 12.8092C14.7278 12.0987 14.3458 11.2445 14.3458 10.2467C14.3458 9.24891 14.7278 8.4028 15.4917 7.70835C16.2556 7.01391 17.1875 6.66669 18.2875 6.66669H36.3917C37.4917 6.66669 38.4236 7.01391 39.1875 7.70835C39.9514 8.4028 40.3333 9.24891 40.3333 10.2467C40.3333 11.2445 39.9514 12.0987 39.1875 12.8092C38.4236 13.5197 37.4917 13.875 36.3917 13.875H18.2875ZM7.65784 13.875C6.56025 13.875 5.62067 13.5197 4.83909 12.8092C4.05748 12.0987 3.66667 11.2445 3.66667 10.2467C3.66667 9.24891 4.05748 8.4028 4.83909 7.70835C5.62067 7.01391 6.56025 6.66669 7.65784 6.66669C8.75539 6.66669 9.68612 7.01391 10.45 7.70835C11.2139 8.4028 11.5958 9.24891 11.5958 10.2467C11.5958 11.2445 11.2139 12.0987 10.45 12.8092C9.68612 13.5197 8.75539 13.875 7.65784 13.875ZM7.65051 23.625C6.55295 23.625 5.61459 23.2697 4.83542 22.5592C4.05626 21.8487 3.66667 20.9945 3.66667 19.9967C3.66667 18.9989 4.05748 18.1459 4.83909 17.4375C5.62067 16.7292 6.56025 16.375 7.65784 16.375C8.75539 16.375 9.69376 16.7303 10.4729 17.4409C11.2521 18.1514 11.6417 19.0055 11.6417 20.0034C11.6417 21.0011 11.2509 21.8542 10.4693 22.5625C9.68767 23.2709 8.74809 23.625 7.65051 23.625ZM7.65784 33.3334C6.56025 33.3334 5.62067 32.9781 4.83909 32.2675C4.05748 31.557 3.66667 30.7028 3.66667 29.705C3.66667 28.7072 4.05748 27.8611 4.83909 27.1667C5.62067 26.4722 6.56025 26.125 7.65784 26.125C8.75539 26.125 9.68612 26.4722 10.45 27.1667C11.2139 27.8611 11.5958 28.7072 11.5958 29.705C11.5958 30.7028 11.2139 31.557 10.45 32.2675C9.68612 32.9781 8.75539 33.3334 7.65784 33.3334Z" fill="black"/>
</svg>
