<svg width="70" height="70" viewBox="0 0 70 70" fill="none" xmlns="http://www.w3.org/2000/svg">
<path d="M29.0938 58.3334C27.3438 58.3334 25.8612 57.7116 24.6459 56.4681C23.4306 55.2247 22.823 53.7299 22.823 51.9838C22.823 50.2377 23.4306 48.757 24.6459 47.5417C25.8612 46.3264 27.3438 45.7188 29.0938 45.7188H57.8959C59.6459 45.7188 61.1285 46.3264 62.3438 47.5417C63.5591 48.757 64.1667 50.2377 64.1667 51.9838C64.1667 53.7299 63.5591 55.2247 62.3438 56.4681C61.1285 57.7116 59.6459 58.3334 57.8959 58.3334H29.0938ZM29.1667 41.3438C27.4222 41.3438 25.9287 40.722 24.6864 39.4786C23.4441 38.2351 22.823 36.7403 22.823 34.9942C22.823 33.2481 23.4441 31.7552 24.6864 30.5156C25.9287 29.2761 27.4222 28.6563 29.1667 28.6563H57.823C59.5675 28.6563 61.0609 29.278 62.3032 30.5215C63.5456 31.7649 64.1667 33.2597 64.1667 35.0059C64.1667 36.752 63.5456 38.2448 62.3032 39.4844C61.0609 40.724 59.5675 41.3438 57.823 41.3438H29.1667ZM29.0938 24.2813C27.3438 24.2813 25.8612 23.6595 24.6459 22.4161C23.4306 21.1726 22.823 19.6778 22.823 17.9317C22.823 16.1856 23.4306 14.7049 24.6459 13.4896C25.8612 12.2743 27.3438 11.6667 29.0938 11.6667H57.8959C59.6459 11.6667 61.1285 12.2743 62.3438 13.4896C63.5591 14.7049 64.1667 16.1856 64.1667 17.9317C64.1667 19.6778 63.5591 21.1726 62.3438 22.4161C61.1285 23.6595 59.6459 24.2813 57.8959 24.2813H29.0938ZM12.183 24.2813C10.4368 24.2813 8.94201 23.6595 7.69858 22.4161C6.45511 21.1726 5.83337 19.6778 5.83337 17.9317C5.83337 16.1856 6.45511 14.7049 7.69858 13.4896C8.94201 12.2743 10.4368 11.6667 12.183 11.6667C13.9291 11.6667 15.4098 12.2743 16.625 13.4896C17.8403 14.7049 18.448 16.1856 18.448 17.9317C18.448 19.6778 17.8403 21.1726 16.625 22.4161C15.4098 23.6595 13.9291 24.2813 12.183 24.2813ZM12.1713 41.3438C10.4252 41.3438 8.93233 40.722 7.69275 39.4786C6.45317 38.2351 5.83337 36.7403 5.83337 34.9942C5.83337 33.2481 6.45511 31.7552 7.69858 30.5156C8.94201 29.2761 10.4368 28.6563 12.183 28.6563C13.9291 28.6563 15.4219 29.278 16.6615 30.5215C17.9011 31.7649 18.5209 33.2597 18.5209 35.0059C18.5209 36.752 17.8991 38.2448 16.6557 39.4844C15.4122 40.724 13.9174 41.3438 12.1713 41.3438ZM12.183 58.3334C10.4368 58.3334 8.94201 57.7116 7.69858 56.4681C6.45511 55.2247 5.83337 53.7299 5.83337 51.9838C5.83337 50.2377 6.45511 48.757 7.69858 47.5417C8.94201 46.3264 10.4368 45.7188 12.183 45.7188C13.9291 45.7188 15.4098 46.3264 16.625 47.5417C17.8403 48.757 18.448 50.2377 18.448 51.9838C18.448 53.7299 17.8403 55.2247 16.625 56.4681C15.4098 57.7116 13.9291 58.3334 12.183 58.3334Z" fill="black"/>
</svg>
