<svg width="47" height="42" viewBox="0 0 47 42" fill="none" xmlns="http://www.w3.org/2000/svg">
<path d="M23.5 22.8375L13.2188 32.025C12.925 32.2875 12.5823 32.4187 12.1907 32.4187C11.799 32.4187 11.4563 32.2875 11.1625 32.025C10.8688 31.7625 10.7219 31.4562 10.7219 31.1062C10.7219 30.7562 10.8688 30.45 11.1625 30.1875L21.4438 21L11.1625 11.8125C10.8688 11.55 10.7219 11.2438 10.7219 10.8938C10.7219 10.5438 10.8688 10.2375 11.1625 9.975C11.4563 9.7125 11.799 9.58125 12.1907 9.58125C12.5823 9.58125 12.925 9.7125 13.2188 9.975L23.5 19.1625L33.7813 9.975C34.075 9.7125 34.4178 9.58125 34.8094 9.58125C35.2011 9.58125 35.5438 9.7125 35.8375 9.975C36.1313 10.2375 36.2782 10.5438 36.2782 10.8938C36.2782 11.2438 36.1313 11.55 35.8375 11.8125L25.5563 21L35.8375 30.1875C36.1313 30.45 36.2782 30.7562 36.2782 31.1062C36.2782 31.4562 36.1313 31.7625 35.8375 32.025C35.5438 32.2875 35.2011 32.4187 34.8094 32.4187C34.4178 32.4187 34.075 32.2875 33.7813 32.025L23.5 22.8375Z" fill="black"/>
</svg>
