<svg width="30" height="29" viewBox="0 0 30 29" fill="none" xmlns="http://www.w3.org/2000/svg">
<path d="M15 15.7687L8.4375 22.1125C8.25 22.2937 8.03125 22.3844 7.78125 22.3844C7.53125 22.3844 7.3125 22.2937 7.125 22.1125C6.9375 21.9312 6.84375 21.7198 6.84375 21.4781C6.84375 21.2365 6.9375 21.025 7.125 20.8437L13.6875 14.5L7.125 8.15625C6.9375 7.975 6.84375 7.76354 6.84375 7.52187C6.84375 7.28021 6.9375 7.06875 7.125 6.8875C7.3125 6.70625 7.53125 6.61562 7.78125 6.61562C8.03125 6.61562 8.25 6.70625 8.4375 6.8875L15 13.2312L21.5625 6.8875C21.75 6.70625 21.9688 6.61562 22.2188 6.61562C22.4688 6.61562 22.6875 6.70625 22.875 6.8875C23.0625 7.06875 23.1562 7.28021 23.1562 7.52187C23.1562 7.76354 23.0625 7.975 22.875 8.15625L16.3125 14.5L22.875 20.8437C23.0625 21.025 23.1562 21.2365 23.1562 21.4781C23.1562 21.7198 23.0625 21.9312 22.875 22.1125C22.6875 22.2937 22.4688 22.3844 22.2188 22.3844C21.9688 22.3844 21.75 22.2937 21.5625 22.1125L15 15.7687Z" fill="black"/>
</svg>
